name C:\Users\antoi\Documents\MyRepositories\upper-imu-dc\Results\main_tracking\Case_69\FLX01_linearAccelerations_bodyFrame.mot
datacolumns 4
datarows 105
range 3.51000000 4.55000000
endheader 
time	radius_imu_x	radius_imu_y	radius_imu_z	
          3.51000000	         -0.62544861	         -9.42684352	          2.45282456	
          3.52000000	         -0.67025334	         -9.42459455	          2.44812820	
          3.53000000	         -0.70965892	         -9.42197645	          2.45084925	
          3.54000000	         -0.74240803	         -9.41925464	          2.46069710	
          3.55000000	         -0.76868249	         -9.41452177	          2.47763466	
          3.56000000	         -0.78797552	         -9.41084610	          2.50026781	
          3.57000000	         -0.80094320	         -9.40731249	          2.52760720	
          3.58000000	         -0.80698555	         -9.40343407	          2.55785396	
          3.59000000	         -0.80720500	         -9.40061084	          2.58915278	
          3.60000000	         -0.80185563	         -9.39860083	          2.61969903	
          3.61000000	         -0.79117396	         -9.39730436	          2.64784614	
          3.62000000	         -0.77524871	         -9.39676355	          2.67219161	
          3.63000000	         -0.75400640	         -9.39679467	          2.69170135	
          3.64000000	         -0.72727563	         -9.39719100	          2.70572147	
          3.65000000	         -0.69481925	         -9.39771505	          2.71398278	
          3.66000000	         -0.65638770	         -9.39811468	          2.71658058	
          3.67000000	         -0.61176925	         -9.39815110	          2.71391359	
          3.68000000	         -0.56085464	         -9.39760852	          2.70659233	
          3.69000000	         -0.50372567	         -9.39629332	          2.69534145	
          3.70000000	         -0.44072536	         -9.39403691	          2.68091883	
          3.71000000	         -0.37247465	         -9.39071034	          2.66406871	
          3.72000000	         -0.29984857	         -9.38624543	          2.64553047	
          3.73000000	         -0.22390001	         -9.38064466	          2.62605643	
          3.74000000	         -0.14580490	         -9.37396023	          2.60643959	
          3.75000000	         -0.06681279	         -9.36625224	          2.58751663	
          3.76000000	          0.01179461	         -9.35754635	          2.57015058	
          3.77000000	          0.08874216	         -9.34779791	          2.55519672	
          3.78000000	          0.16280007	         -9.33686427	          2.54345743	
          3.79000000	          0.23282418	         -9.32450010	          2.53564183	
          3.80000000	          0.29779693	         -9.31039585	          2.53234897	
          3.81000000	          0.35686692	         -9.29425642	          2.53407250	
          3.82000000	          0.40937662	         -9.27588569	          2.54120106	
          3.83000000	          0.45486560	         -9.25523928	          2.55398796	
          3.84000000	          0.49304835	         -9.23242978	          2.57249490	
          3.85000000	          0.52379196	         -9.20769625	          2.59653197	
          3.86000000	          0.54710901	         -9.18135666	          2.62562225	
          3.87000000	          0.56314345	         -9.15376454	          2.65900732	
          3.88000000	          0.57214384	         -9.12527379	          2.69566539	
          3.89000000	          0.57441602	         -9.09620001	          2.73435966	
          3.90000000	          0.57029608	         -9.06679055	          2.77370323	
          3.91000000	          0.56014796	         -9.03720927	          2.81223985	
          3.92000000	          0.54435710	         -9.00755017	          2.84851868	
          3.93000000	          0.52327690	         -8.97784666	          2.88115268	
          3.94000000	          0.49714598	         -8.94795736	          2.90888160	
          3.95000000	          0.46603461	         -8.91762424	          2.93061340	
          3.96000000	          0.42970051	         -8.88662769	          2.94552002	
          3.97000000	          0.38791149	         -8.85447082	          2.95309770	
          3.98000000	          0.33986332	         -8.82062414	          2.95336550	
          3.99000000	          0.28481918	         -8.78502672	          2.94674536	
          4.00000000	          0.22218314	         -8.74762967	          2.93413002	
          4.01000000	          0.15066930	         -8.70827354	          2.91704722	
          4.02000000	          0.06930142	         -8.66694000	          2.89730642	
          4.03000000	         -0.02305899	         -8.62382070	          2.87698251	
          4.04000000	         -0.12755303	         -8.57913009	          2.85821762	
          4.05000000	         -0.24520421	         -8.53301041	          2.84304259	
          4.06000000	         -0.37693314	         -8.48572659	          2.83322856	
          4.07000000	         -0.52342873	         -8.43739814	          2.83022786	
          4.08000000	         -0.68507811	         -8.38809052	          2.83516371	
          4.09000000	         -0.86173388	         -8.33783953	          2.84881767	
          4.10000000	         -1.05261032	         -8.28655564	          2.87164595	
          4.11000000	         -1.25617958	         -8.23407495	          2.90372016	
          4.12000000	         -1.47015623	         -8.18017709	          2.94466220	
          4.13000000	         -1.69157954	         -8.12461600	          2.99361882	
          4.14000000	         -1.91697431	         -8.06719304	          3.04930550	
          4.15000000	         -2.14255787	         -8.00781715	          3.11012205	
          4.16000000	         -2.36445203	         -7.94651582	          3.17430981	
          4.17000000	         -2.57886677	         -7.88339226	          3.24011796	
          4.18000000	         -2.78224068	         -7.81855468	          3.30596414	
          4.19000000	         -2.97134835	         -7.75205780	          3.37059182	
          4.20000000	         -3.14340091	         -7.68387557	          3.43322443	
          4.21000000	         -3.29616558	         -7.61388011	          3.49369515	
          4.22000000	         -3.42811020	         -7.54180062	          3.55251142	
          4.23000000	         -3.53855305	         -7.46719952	          3.61081320	
          4.24000000	         -3.62779398	         -7.38950264	          3.67021237	
          4.25000000	         -3.69720767	         -7.30810422	          3.73253384	
          4.26000000	         -3.74926873	         -7.22251873	          3.79951435	
          4.27000000	         -3.78743238	         -7.13252979	          3.87252700	
          4.28000000	         -3.81579346	         -7.03827701	          3.95239304	
          4.29000000	         -3.83858065	         -6.94022083	          4.03930133	
          4.30000000	         -3.85967858	         -6.83910513	          4.13280058	
          4.31000000	         -3.88231588	         -6.73585611	          4.23184099	
          4.32000000	         -3.90890445	         -6.63142325	          4.33485955	
          4.33000000	         -3.94093402	         -6.52660546	          4.43991069	
          4.34000000	         -3.97890308	         -6.42191336	          4.54485000	
          4.35000000	         -4.02233890	         -6.31751545	          4.64755496	
          4.36000000	         -4.06995070	         -6.21320913	          4.74616562	
          4.37000000	         -4.11981553	         -6.10852301	          4.83932059	
          4.38000000	         -4.16962756	         -6.00284108	          4.92627674	
          4.39000000	         -4.21699432	         -5.89550481	          5.00691161	
          4.40000000	         -4.25972265	         -5.78595890	          5.08165066	
          4.41000000	         -4.29602554	         -5.67377451	          5.15124595	
          4.42000000	         -4.32451385	         -5.55867679	          5.21646818	
          4.43000000	         -4.34406159	         -5.44049115	          5.27780716	
          4.44000000	         -4.35371036	         -5.31905758	          5.33526166	
          4.45000000	         -4.35272784	         -5.19417982	          5.38830009	
          4.46000000	         -4.34080661	         -5.06559681	          5.43601929	
          4.47000000	         -4.31831385	         -4.93298529	          5.47742509	
          4.48000000	         -4.28647016	         -4.79596540	          5.51170885	
          4.49000000	         -4.24733126	         -4.65414409	          5.53841854	
          4.50000000	         -4.20350377	         -4.50718225	          5.55750572	
          4.51000000	         -4.15773748	         -4.35481777	          5.56931434	
          4.52000000	         -4.11258807	         -4.19685329	          5.57456768	
          4.53000000	         -4.07021447	         -4.03311839	          5.57441275	
          4.54000000	         -4.03221976	         -3.86341442	          5.57052602	
          4.55000000	         -3.99949978	         -3.68747314	          5.56521390	
